{"title":"Dune.(1984).OFFICIAL.LYNCH.US.THEATRICAL.CUT.DVDRip.272p.H264.AA","uid":7056294,"size":398425899,"categoryP":"video","categoryS":"movies","magnet":"?xt=urn:btih:9ef36476e9a51703ef5187b18c82b0228f3b4801&amp;dn=Dune.%281984%29.OFFICIAL.LYNCH.US.THEATRICAL.CUT.DVDRip.272p.H264.AA&amp;tr=udp%3A%2F%2Ftracker.openbittorrent.com%3A80&amp;tr=udp%3A%2F%2Fopen.demonii.com%3A1337&amp;tr=udp%3A%2F%2Ftracker.coppersurfer.tk%3A6969&amp;tr=udp%3A%2F%2Fexodus.desync.com%3A6969","seeders":1,"leechers":1,"uploader":"k3nd00d","files":-1,"time":1330132683,"description":"\nxxxxxxxxxxxxxxxxxxxxxxxxxxxxxxxxxxxxxxxxxxxxxxxxxxxxxxxxxxxxxxxxxxxxxxxxxxxxxxxx\n\nDune\n1984 Official Lynch US Theatrical Cut\n\nDirector: David Lynch\n\nxxxxxxxxxxxxxxxxxxxxxxxxxxxxxxxxxxxxxxxxxxxxxxxxxxxxxxxxxxxxxxxxxxxxxxxxxxxxxxxx\n\nOFFICIAL VERSIONS INFO:\n &lt;a href=&quot;\nhttp://www.imdb.com/title/tt0087182/&quot; rel=&quot;nofollow&quot; target=&quot;_NEW&quot;&gt;\nhttp://www.imdb.com/title/tt0087182/&lt;/a&gt;\n &lt;a href=&quot;\nhttp://www.imdb.com/title/tt0087182/alternateversions&quot; rel=&quot;nofollow&quot; target=&quot;_NEW&quot;&gt;\nhttp://www.imdb.com/title/tt0087182/alternateversions&lt;/a&gt;\n &lt;a href=&quot;\nhttp://en.wikipedia.org/wiki/Dune_(film)&quot; rel=&quot;nofollow&quot; target=&quot;_NEW&quot;&gt;\nhttp://en.wikipedia.org/wiki/Dune_(film)&lt;/a&gt;\n\nxxxxxxxxxxxxxxxxxxxxxxxxxxxxxxxxxxxxxxxxxxxxxxxxxxxxxxxxxxxxxxxxxxxxxxxxxxxxxxxx\n\nA WORLD BEYOND YOUR EXPERIENCE, BEYOND YOUR IMAGINATION.\n\nThe spice must flow.\n\nxxxxxxxxxxxxxxxxxxxxxxxxxxxxxxxxxxxxxxxxxxxxxxxxxxxxxxxxxxxxxxxxxxxxxxxxxxxxxxxx\n\nKyle MacLachlan\t ...\tPaul Atreides\nVirginia Madsen\t ...\tPrincess Irulan\nPatrick Stewart\t ...\tGurney Halleck\nSting\t \t ...\tFeyd Rautha\nDean Stockwell\t ...\tDoctor Wellington Yueh\nSean Young\t ...\tChani\nFrancesca Annis\t ...\tLady Jessica\nLeonardo Cimino\t ...\tThe Baron's Doctor\nBrad Dourif\t ...\tPiter De Vries\nJose Ferrer\t ...\tPadishah Emperor Shaddam IV\nLinda Hunt\t ...\tShadout Mapes\nFreddie Jones\t ...\tThufir Hawat\nRichard Jordan\t ...\tDuncan Idaho\nSilvana Mangano\t ...\tReverend Mother Ramallo\nEverett McGill\t ...\tStilgar\nKenneth McMillan ...\tBaron Vladimir Harkonnen\nJack Nance\t ...\tNefud\nSian Phillips\t ...\tReverend Mother Gaius Helen Mohiam\nJurgen Prochnow\t ...\tDuke Leto Atreides\nPaul L. Smith\t ...\tThe Beast Rabban\nMax von Sydow\t ...\tDoctor Kynes\nAlicia Witt\t ...\tAlia\n\nxxxxxxxxxxxxxxxxxxxxxxxxxxxxxxxxxxxxxxxxxxxxxxxxxxxxxxxxxxxxxxxxxxxxxxxxxxxxxxxx\n\nOther versions of Dune in 272p and 480x352: &lt;a href=&quot;\nhttp://thepiratebay.com/tag/Dune+272p&quot; rel=&quot;nofollow&quot; target=&quot;_NEW&quot;&gt;\nhttp://thepiratebay.com/tag/Dune+272p&lt;/a&gt; &lt;a href=&quot;\nhttp://thepiratebay.com/tag/Dune+480x352&quot; rel=&quot;nofollow&quot; target=&quot;_NEW&quot;&gt;\nhttp://thepiratebay.com/tag/Dune+480x352&lt;/a&gt;\n\nOther releases: &lt;a href=&quot;\nhttp://thepiratebay.com/user/k3nd00d&quot; rel=&quot;nofollow&quot; target=&quot;_NEW&quot;&gt;\nhttp://thepiratebay.com/user/k3nd00d&lt;/a&gt;\n\nxxxxxxxxxxxxxxxxxxxxxxxxxxxxxxxxxxxxxxxxxxxxxxxxxxxxxxxxxxxxxxxxxxxxxxxxxxxxxxxx\n\nGeneral\nFormat                           : MPEG-4\nFormat profile                   : Base Media / Version 2\nCodec ID                         : mp42\nFile size                        : 379 MiB\nDuration                         : 2h 16mn\nOverall bit rate                 : 388 Kbps\n\nVideo\nID                               : 1\nFormat                           : AVC\nFormat/Info                      : Advanced Video Codec\nFormat profile                   : &lt;a class=&quot;__cf_email__&quot; href=&quot;/cdn-cgi/l/email-protection&quot; data-cfemail=&quot;2c6e4d5f49404542496c601d021f&quot;&gt;[email&amp;#160;protected]&lt;/a&gt;&lt;script cf-hash='f9e31' type=&quot;text/javascript&quot;&gt;\n/* &lt;![CDATA[ */!function(){try{var t=&quot;currentScript&quot;in document?document.currentScript:function(){for(var t=document.getElementsByTagName(&quot;script&quot;),e=t.length;e--;)if(t[e].getAttribute(&quot;cf-hash&quot;))return t[e]}();if(t&amp;&amp;t.previousSibling){var e,r,n,i,c=t.previousSibling,a=c.getAttribute(&quot;data-cfemail&quot;);if(a){for(e=&quot;&quot;,r=parseInt(a.substr(0,2),16),n=2;a.length-n;n+=2)i=parseInt(a.substr(n,2),16)^r,e+=String.fromCharCode(i);e=document.createTextNode(e),c.parentNode.replaceChild(e,c)}}}catch(u){}}();/* ]]&gt; */&lt;/script&gt;\nFormat settings, CABAC           : No\nFormat settings, ReFrames        : 2 frames\nCodec ID                         : avc1\nCodec ID/Info                    : Advanced Video Coding\nDuration                         : 2h 16mn\nBit rate mode                    : Variable\nBit rate                         : 320 Kbps\nWidth                            : 480 pixels\nHeight                           : 208 pixels\nDisplay aspect ratio             : 2.35:1\nFrame rate mode                  : Variable\nFrame rate                       : 23.976 fps\nMinimum frame rate               : 14.985 fps\nMaximum frame rate               : 91.556 fps\nColor space                      : YUV\nChroma subsampling               : 4:2:0\nBit depth                        : 8 bits\nScan type                        : Progressive\nBits/(Pixel*Frame)               : 0.134\nStream size                      : 312 MiB (82%)\nWriting library                  : x264 core 79\n\nAudio\nID                               : 2\nFormat                           : AAC\nFormat/Info                      : Advanced Audio Codec\nFormat profile                   : LC\nCodec ID                         : 40\nDuration                         : 2h 16mn\nBit rate mode                    : Variable\nBit rate                         : 64.0 Kbps\nMaximum bit rate                 : 90.3 Kbps\nChannel(s)                       : 2 channels\nChannel positions                : Front: L R\nSampling rate                    : 44.1 KHz\nCompression mode                 : Lossy\nStream size                      : 62.4 MiB (16%)\nLanguage                         : English\n\nxxxxxxxxxxxxxxxxxxxxxxxxxxxxxxxxxxxxxxxxxxxxxxxxxxxxxxxxxxxxxxxxxxxxxxxxxxxxxxxx\n","torrent":{"xt":"urn:btih:9ef36476e9a51703ef5187b18c82b0228f3b4801","amp;dn":"Dune.%281984%29.OFFICIAL.LYNCH.US.THEATRICAL.CUT.DVDRip.272p.H264.AA","amp;tr":["udp%3A%2F%2Ftracker.openbittorrent.com%3A80","udp%3A%2F%2Fopen.demonii.com%3A1337","udp%3A%2F%2Ftracker.coppersurfer.tk%3A6969","udp%3A%2F%2Fexodus.desync.com%3A6969"],"infoHash":"9ef36476e9a51703ef5187b18c82b0228f3b4801","infoHashBuffer":{"type":"Buffer","data":[158,243,100,118,233,165,23,3,239,81,135,177,140,130,176,34,143,59,72,1]},"announce":[],"urlList":[]}}